<mxfile host="app.diagrams.net" agent="Mozilla/5.0 (Windows NT 10.0; Win64; x64) AppleWebKit/537.36 (KHTML, like Gecko) Chrome/135.0.0.0 Safari/537.36" version="26.2.13">
  <diagram name="第 1 页" id="Wf5bCm0vmmasbA9ZrJEz">
    <mxGraphModel dx="1189" dy="594" grid="1" gridSize="10" guides="1" tooltips="1" connect="1" arrows="1" fold="1" page="1" pageScale="1" pageWidth="827" pageHeight="1169" math="0" shadow="0">
      <root>
        <mxCell id="0" />
        <mxCell id="1" parent="0" />
        <mxCell id="UGEjBkd4AifreBT5Tn5z-3" style="edgeStyle=orthogonalEdgeStyle;rounded=0;orthogonalLoop=1;jettySize=auto;html=1;entryX=0.5;entryY=0;entryDx=0;entryDy=0;" edge="1" parent="1" source="UGEjBkd4AifreBT5Tn5z-1" target="UGEjBkd4AifreBT5Tn5z-2">
          <mxGeometry relative="1" as="geometry" />
        </mxCell>
        <mxCell id="UGEjBkd4AifreBT5Tn5z-1" value="IDEL" style="ellipse;whiteSpace=wrap;html=1;aspect=fixed;" vertex="1" parent="1">
          <mxGeometry x="205" y="45" width="80" height="80" as="geometry" />
        </mxCell>
        <mxCell id="UGEjBkd4AifreBT5Tn5z-18" style="edgeStyle=orthogonalEdgeStyle;rounded=0;orthogonalLoop=1;jettySize=auto;html=1;entryX=0.5;entryY=0;entryDx=0;entryDy=0;" edge="1" parent="1" source="UGEjBkd4AifreBT5Tn5z-2" target="UGEjBkd4AifreBT5Tn5z-17">
          <mxGeometry relative="1" as="geometry" />
        </mxCell>
        <mxCell id="UGEjBkd4AifreBT5Tn5z-2" value="DATA_IN" style="ellipse;whiteSpace=wrap;html=1;aspect=fixed;" vertex="1" parent="1">
          <mxGeometry x="205" y="185" width="80" height="80" as="geometry" />
        </mxCell>
        <mxCell id="UGEjBkd4AifreBT5Tn5z-4" value="rst = 1&#39;b0;" style="text;html=1;align=center;verticalAlign=middle;whiteSpace=wrap;rounded=0;" vertex="1" parent="1">
          <mxGeometry x="260" y="140" width="60" height="30" as="geometry" />
        </mxCell>
        <mxCell id="UGEjBkd4AifreBT5Tn5z-24" style="edgeStyle=orthogonalEdgeStyle;rounded=0;orthogonalLoop=1;jettySize=auto;html=1;entryX=0.5;entryY=0;entryDx=0;entryDy=0;" edge="1" parent="1" source="UGEjBkd4AifreBT5Tn5z-5" target="UGEjBkd4AifreBT5Tn5z-23">
          <mxGeometry relative="1" as="geometry" />
        </mxCell>
        <mxCell id="UGEjBkd4AifreBT5Tn5z-5" value="SORT" style="ellipse;whiteSpace=wrap;html=1;aspect=fixed;" vertex="1" parent="1">
          <mxGeometry x="205" y="400" width="80" height="80" as="geometry" />
        </mxCell>
        <mxCell id="UGEjBkd4AifreBT5Tn5z-32" style="edgeStyle=orthogonalEdgeStyle;rounded=0;orthogonalLoop=1;jettySize=auto;html=1;exitX=1;exitY=0.5;exitDx=0;exitDy=0;entryX=0;entryY=0.5;entryDx=0;entryDy=0;" edge="1" parent="1" source="UGEjBkd4AifreBT5Tn5z-6" target="UGEjBkd4AifreBT5Tn5z-13">
          <mxGeometry relative="1" as="geometry" />
        </mxCell>
        <mxCell id="UGEjBkd4AifreBT5Tn5z-35" style="edgeStyle=orthogonalEdgeStyle;rounded=0;orthogonalLoop=1;jettySize=auto;html=1;exitX=1;exitY=0;exitDx=0;exitDy=0;entryX=0;entryY=0.5;entryDx=0;entryDy=0;" edge="1" parent="1" source="UGEjBkd4AifreBT5Tn5z-6" target="UGEjBkd4AifreBT5Tn5z-9">
          <mxGeometry relative="1" as="geometry">
            <Array as="points">
              <mxPoint x="410" y="636" />
              <mxPoint x="410" y="100" />
            </Array>
          </mxGeometry>
        </mxCell>
        <mxCell id="UGEjBkd4AifreBT5Tn5z-37" style="edgeStyle=orthogonalEdgeStyle;rounded=0;orthogonalLoop=1;jettySize=auto;html=1;exitX=0;exitY=0.5;exitDx=0;exitDy=0;entryX=0;entryY=0;entryDx=0;entryDy=0;" edge="1" parent="1" source="UGEjBkd4AifreBT5Tn5z-6" target="UGEjBkd4AifreBT5Tn5z-2">
          <mxGeometry relative="1" as="geometry">
            <Array as="points">
              <mxPoint x="90" y="675" />
              <mxPoint x="90" y="197" />
            </Array>
          </mxGeometry>
        </mxCell>
        <mxCell id="UGEjBkd4AifreBT5Tn5z-39" style="edgeStyle=orthogonalEdgeStyle;rounded=0;orthogonalLoop=1;jettySize=auto;html=1;exitX=0;exitY=1;exitDx=0;exitDy=0;entryX=0.5;entryY=1;entryDx=0;entryDy=0;" edge="1" parent="1" source="UGEjBkd4AifreBT5Tn5z-6" target="UGEjBkd4AifreBT5Tn5z-6">
          <mxGeometry relative="1" as="geometry">
            <mxPoint x="250" y="740" as="targetPoint" />
            <Array as="points">
              <mxPoint x="206" y="780" />
              <mxPoint x="245" y="780" />
            </Array>
          </mxGeometry>
        </mxCell>
        <mxCell id="UGEjBkd4AifreBT5Tn5z-6" value="&lt;div style=&quot;font-family: Consolas, &amp;quot;Courier New&amp;quot;, monospace; font-size: 14px; line-height: 19px; white-space: pre;&quot;&gt;&lt;font style=&quot;color: rgb(0, 0, 0);&quot;&gt;CHECK_INSERT&lt;/font&gt;&lt;/div&gt;" style="ellipse;whiteSpace=wrap;html=1;aspect=fixed;" vertex="1" parent="1">
          <mxGeometry x="190" y="620" width="110" height="110" as="geometry" />
        </mxCell>
        <mxCell id="UGEjBkd4AifreBT5Tn5z-40" style="edgeStyle=orthogonalEdgeStyle;rounded=0;orthogonalLoop=1;jettySize=auto;html=1;entryX=0.5;entryY=0;entryDx=0;entryDy=0;" edge="1" parent="1" source="UGEjBkd4AifreBT5Tn5z-9" target="UGEjBkd4AifreBT5Tn5z-10">
          <mxGeometry relative="1" as="geometry" />
        </mxCell>
        <mxCell id="UGEjBkd4AifreBT5Tn5z-43" style="edgeStyle=orthogonalEdgeStyle;rounded=0;orthogonalLoop=1;jettySize=auto;html=1;exitX=0.085;exitY=0.729;exitDx=0;exitDy=0;entryX=0.198;entryY=0.911;entryDx=0;entryDy=0;entryPerimeter=0;exitPerimeter=0;" edge="1" parent="1" source="UGEjBkd4AifreBT5Tn5z-9" target="UGEjBkd4AifreBT5Tn5z-9">
          <mxGeometry relative="1" as="geometry">
            <mxPoint x="560" y="180" as="targetPoint" />
            <Array as="points">
              <mxPoint x="556" y="125" />
              <mxPoint x="556" y="130" />
              <mxPoint x="520" y="130" />
              <mxPoint x="520" y="140" />
              <mxPoint x="521" y="140" />
              <mxPoint x="521" y="160" />
              <mxPoint x="562" y="160" />
            </Array>
          </mxGeometry>
        </mxCell>
        <mxCell id="UGEjBkd4AifreBT5Tn5z-9" value="&lt;div style=&quot;font-family: Consolas, &amp;quot;Courier New&amp;quot;, monospace; font-size: 14px; line-height: 19px; white-space: pre;&quot;&gt;&lt;div style=&quot;line-height: 19px;&quot;&gt;&amp;nbsp;FIND_CUT_LEFT&lt;/div&gt;&lt;/div&gt;" style="ellipse;whiteSpace=wrap;html=1;aspect=fixed;fontColor=#000000;labelBackgroundColor=none;" vertex="1" parent="1">
          <mxGeometry x="540" y="45" width="110" height="110" as="geometry" />
        </mxCell>
        <mxCell id="UGEjBkd4AifreBT5Tn5z-41" style="edgeStyle=orthogonalEdgeStyle;rounded=0;orthogonalLoop=1;jettySize=auto;html=1;entryX=0.5;entryY=0;entryDx=0;entryDy=0;" edge="1" parent="1" source="UGEjBkd4AifreBT5Tn5z-10" target="UGEjBkd4AifreBT5Tn5z-12">
          <mxGeometry relative="1" as="geometry" />
        </mxCell>
        <mxCell id="UGEjBkd4AifreBT5Tn5z-10" value="&lt;div style=&quot;font-family: Consolas, &amp;quot;Courier New&amp;quot;, monospace; font-size: 14px; line-height: 19px; white-space: pre;&quot;&gt;&lt;div style=&quot;line-height: 19px;&quot;&gt;&amp;nbsp;FIND_CUT_LEFT&lt;/div&gt;&lt;/div&gt;" style="ellipse;whiteSpace=wrap;html=1;aspect=fixed;fontColor=#000000;labelBackgroundColor=none;" vertex="1" parent="1">
          <mxGeometry x="540" y="215" width="110" height="110" as="geometry" />
        </mxCell>
        <mxCell id="UGEjBkd4AifreBT5Tn5z-42" style="edgeStyle=orthogonalEdgeStyle;rounded=0;orthogonalLoop=1;jettySize=auto;html=1;entryX=0.5;entryY=0;entryDx=0;entryDy=0;" edge="1" parent="1" source="UGEjBkd4AifreBT5Tn5z-12" target="UGEjBkd4AifreBT5Tn5z-13">
          <mxGeometry relative="1" as="geometry" />
        </mxCell>
        <mxCell id="UGEjBkd4AifreBT5Tn5z-12" value="&lt;div style=&quot;font-family: Consolas, &amp;quot;Courier New&amp;quot;, monospace; font-size: 14px; line-height: 19px; white-space: pre;&quot;&gt;INSERT_NEW&lt;/div&gt;" style="ellipse;whiteSpace=wrap;html=1;aspect=fixed;fontColor=#000000;labelBackgroundColor=none;" vertex="1" parent="1">
          <mxGeometry x="555" y="375" width="80" height="80" as="geometry" />
        </mxCell>
        <mxCell id="UGEjBkd4AifreBT5Tn5z-13" value="&lt;div style=&quot;font-family: Consolas, &amp;quot;Courier New&amp;quot;, monospace; font-size: 14px; line-height: 19px; white-space: pre;&quot;&gt;DATA_OUT&lt;/div&gt;" style="ellipse;whiteSpace=wrap;html=1;aspect=fixed;fontColor=#000000;labelBackgroundColor=none;" vertex="1" parent="1">
          <mxGeometry x="555" y="520" width="80" height="80" as="geometry" />
        </mxCell>
        <mxCell id="UGEjBkd4AifreBT5Tn5z-19" style="edgeStyle=orthogonalEdgeStyle;rounded=0;orthogonalLoop=1;jettySize=auto;html=1;entryX=0.5;entryY=0;entryDx=0;entryDy=0;" edge="1" parent="1" source="UGEjBkd4AifreBT5Tn5z-17" target="UGEjBkd4AifreBT5Tn5z-5">
          <mxGeometry relative="1" as="geometry" />
        </mxCell>
        <mxCell id="UGEjBkd4AifreBT5Tn5z-21" value="True" style="edgeLabel;html=1;align=center;verticalAlign=middle;resizable=0;points=[];" vertex="1" connectable="0" parent="UGEjBkd4AifreBT5Tn5z-19">
          <mxGeometry x="-0.019" y="1" relative="1" as="geometry">
            <mxPoint as="offset" />
          </mxGeometry>
        </mxCell>
        <mxCell id="UGEjBkd4AifreBT5Tn5z-20" style="edgeStyle=orthogonalEdgeStyle;rounded=0;orthogonalLoop=1;jettySize=auto;html=1;exitX=0;exitY=0.5;exitDx=0;exitDy=0;entryX=0;entryY=0.5;entryDx=0;entryDy=0;" edge="1" parent="1" source="UGEjBkd4AifreBT5Tn5z-17" target="UGEjBkd4AifreBT5Tn5z-2">
          <mxGeometry relative="1" as="geometry" />
        </mxCell>
        <mxCell id="UGEjBkd4AifreBT5Tn5z-22" value="False" style="edgeLabel;html=1;align=center;verticalAlign=middle;resizable=0;points=[];" vertex="1" connectable="0" parent="UGEjBkd4AifreBT5Tn5z-20">
          <mxGeometry x="-0.2476" y="-1" relative="1" as="geometry">
            <mxPoint as="offset" />
          </mxGeometry>
        </mxCell>
        <mxCell id="UGEjBkd4AifreBT5Tn5z-17" value="(count &amp;lt;= 4;d4)?" style="rhombus;whiteSpace=wrap;html=1;" vertex="1" parent="1">
          <mxGeometry x="140" y="290" width="210" height="60" as="geometry" />
        </mxCell>
        <mxCell id="UGEjBkd4AifreBT5Tn5z-25" style="edgeStyle=orthogonalEdgeStyle;rounded=0;orthogonalLoop=1;jettySize=auto;html=1;" edge="1" parent="1" source="UGEjBkd4AifreBT5Tn5z-23" target="UGEjBkd4AifreBT5Tn5z-6">
          <mxGeometry relative="1" as="geometry" />
        </mxCell>
        <mxCell id="UGEjBkd4AifreBT5Tn5z-27" value="False" style="edgeLabel;html=1;align=center;verticalAlign=middle;resizable=0;points=[];" vertex="1" connectable="0" parent="UGEjBkd4AifreBT5Tn5z-25">
          <mxGeometry x="-0.0788" y="-1" relative="1" as="geometry">
            <mxPoint x="1" as="offset" />
          </mxGeometry>
        </mxCell>
        <mxCell id="UGEjBkd4AifreBT5Tn5z-26" style="edgeStyle=orthogonalEdgeStyle;rounded=0;orthogonalLoop=1;jettySize=auto;html=1;entryX=1;entryY=0.5;entryDx=0;entryDy=0;" edge="1" parent="1" source="UGEjBkd4AifreBT5Tn5z-23" target="UGEjBkd4AifreBT5Tn5z-2">
          <mxGeometry relative="1" as="geometry">
            <mxPoint x="370" y="220" as="targetPoint" />
            <Array as="points">
              <mxPoint x="371" y="535" />
              <mxPoint x="371" y="225" />
            </Array>
          </mxGeometry>
        </mxCell>
        <mxCell id="UGEjBkd4AifreBT5Tn5z-28" value="True" style="edgeLabel;html=1;align=center;verticalAlign=middle;resizable=0;points=[];" vertex="1" connectable="0" parent="UGEjBkd4AifreBT5Tn5z-26">
          <mxGeometry x="-0.1855" y="-1" relative="1" as="geometry">
            <mxPoint as="offset" />
          </mxGeometry>
        </mxCell>
        <mxCell id="UGEjBkd4AifreBT5Tn5z-23" value="stack &amp;lt;= 3" style="rhombus;whiteSpace=wrap;html=1;" vertex="1" parent="1">
          <mxGeometry x="140" y="505" width="210" height="60" as="geometry" />
        </mxCell>
        <mxCell id="UGEjBkd4AifreBT5Tn5z-34" value="is_inside" style="text;html=1;align=center;verticalAlign=middle;resizable=0;points=[];autosize=1;strokeColor=none;fillColor=none;" vertex="1" parent="1">
          <mxGeometry x="320" y="650" width="70" height="30" as="geometry" />
        </mxCell>
        <mxCell id="UGEjBkd4AifreBT5Tn5z-36" value="is_inside = 1&#39;b0;" style="text;html=1;align=center;verticalAlign=middle;resizable=0;points=[];autosize=1;strokeColor=none;fillColor=none;" vertex="1" parent="1">
          <mxGeometry x="290" y="610" width="110" height="30" as="geometry" />
        </mxCell>
        <mxCell id="UGEjBkd4AifreBT5Tn5z-38" value="stack &amp;lt;= 3" style="text;html=1;align=center;verticalAlign=middle;resizable=0;points=[];autosize=1;strokeColor=none;fillColor=none;" vertex="1" parent="1">
          <mxGeometry x="101" y="648" width="80" height="30" as="geometry" />
        </mxCell>
      </root>
    </mxGraphModel>
  </diagram>
</mxfile>
